<svg width="107" height="26" viewBox="0 0 107 26" fill="none" xmlns="http://www.w3.org/2000/svg">
<path d="M2.98047 25V3.28906H0.328125V0.9375H8.27148V3.28906H5.79688V25H2.98047ZM9.53203 25V0.9375H12.3621V11.2324H16.2176V0.9375H19.0477V25H16.2176V13.543H12.3621V25H9.53203ZM21.9352 25V0.9375H29.1266V3.28906H24.7652V11.5195H28.8941V13.8711H24.7652V22.6484H29.1812V25H21.9352ZM36.925 25V0.9375H41.7648C42.7219 0.9375 43.4966 1.09701 44.0891 1.41602C44.6906 1.73503 45.1509 2.19531 45.4699 2.79688C45.7889 3.39844 46.0031 4.12305 46.1125 4.9707C46.231 5.81836 46.2902 6.77083 46.2902 7.82812V8.19727C46.2902 9.81055 46.1626 11.1641 45.9074 12.2578C45.6613 13.3516 45.2102 14.1764 44.5539 14.7324C43.9068 15.2793 42.9771 15.5527 41.7648 15.5527H39.7551V25H36.925ZM39.7551 13.2012H41.4777C42.0337 13.2012 42.453 13.0462 42.7355 12.7363C43.0181 12.4173 43.2095 11.8932 43.3098 11.1641C43.4191 10.4349 43.4738 9.44596 43.4738 8.19727V7.73242C43.4738 6.18294 43.3553 5.03906 43.1184 4.30078C42.8814 3.55339 42.3573 3.17969 41.5461 3.17969H39.7551V13.2012ZM48.0977 25V0.9375H50.9277V22.6621H55.3711V25H48.0977ZM55.2781 25L58.9285 0.9375H62.3328L66.3113 25H63.6453L62.9617 20.4062H58.6004L57.9715 25H55.2781ZM58.9148 18.1094H62.6063L60.7059 5.39453H60.6648L58.9148 18.1094ZM67.9273 25V0.9375H70.0602L75.6383 17.3164L75.3512 10.3574V0.9375H77.8531V25H75.775L70.3746 8.48438L70.5387 14.5547V25H67.9273ZM80.7406 25V0.9375H87.932V3.28906H83.5707V11.5195H87.6996V13.8711H83.5707V22.6484H87.9867V25H80.7406ZM91.0383 25V3.28906H88.3859V0.9375H96.3293V3.28906H93.8547V25H91.0383ZM101.473 25.2734C100.497 25.2734 99.7044 25.1003 99.0938 24.7539C98.4831 24.3984 98.0137 23.8971 97.6855 23.25C97.3574 22.6029 97.1296 21.8418 97.002 20.9668C96.8835 20.0827 96.8242 19.1074 96.8242 18.041V15.7031H99.5723V18.1504C99.5723 19.8366 99.6908 21.0443 99.9277 21.7734C100.174 22.4935 100.698 22.8535 101.5 22.8535C102.056 22.8535 102.462 22.7259 102.717 22.4707C102.981 22.2064 103.15 21.7871 103.223 21.2129C103.296 20.6387 103.332 19.8822 103.332 18.9434C103.332 17.8678 103.141 16.9427 102.758 16.168C102.384 15.3932 101.842 14.6504 101.131 13.9395L99.5586 12.3672C99.1029 11.9023 98.6562 11.3965 98.2188 10.8496C97.7812 10.2936 97.4167 9.66471 97.125 8.96289C96.8424 8.26107 96.7012 7.45898 96.7012 6.55664C96.7012 5.3444 96.8288 4.29622 97.084 3.41211C97.3392 2.52799 97.804 1.8444 98.4785 1.36133C99.153 0.878255 100.11 0.636719 101.35 0.636719C102.325 0.636719 103.104 0.805339 103.688 1.14258C104.28 1.47982 104.722 1.96289 105.014 2.5918C105.314 3.21159 105.51 3.94987 105.602 4.80664C105.702 5.66341 105.752 6.61133 105.752 7.65039V9.07227H103.045V7.45898C103.045 6.48372 103.004 5.67253 102.922 5.02539C102.849 4.36914 102.694 3.87695 102.457 3.54883C102.22 3.2207 101.851 3.05664 101.35 3.05664C100.894 3.05664 100.52 3.17057 100.229 3.39844C99.946 3.61719 99.7409 3.95898 99.6133 4.42383C99.4857 4.88867 99.4219 5.48568 99.4219 6.21484C99.4219 6.85286 99.4993 7.38151 99.6543 7.80078C99.8092 8.21094 100.042 8.59375 100.352 8.94922C100.671 9.30469 101.058 9.72396 101.514 10.207L103.154 11.9434C104.02 12.8457 104.727 13.8574 105.273 14.9785C105.829 16.0905 106.107 17.3848 106.107 18.8613C106.107 20.1921 105.975 21.3359 105.711 22.293C105.456 23.25 104.995 23.9883 104.33 24.5078C103.665 25.0182 102.712 25.2734 101.473 25.2734Z" fill="white"/>
</svg>
